<svg width="135" height="40" xmlns="http://www.w3.org/2000/svg"><path d="M68.136 21.752c-2.352 0-4.269 1.788-4.269 4.253 0 2.449 1.917 4.253 4.269 4.253 2.352 0 4.269-1.804 4.269-4.253 0-2.465-1.917-4.253-4.269-4.253zm0 6.83c-1.289 0-2.401-1.063-2.401-2.578 0-1.53 1.112-2.578 2.401-2.578 1.289 0 2.4 1.047 2.4 2.578 0 1.515-1.111 2.578-2.4 2.578zm-9.313-6.83c-2.352 0-4.269 1.788-4.269 4.253 0 2.449 1.917 4.253 4.269 4.253 2.352 0 4.269-1.804 4.269-4.253 0-2.465-1.917-4.253-4.269-4.253zm0 6.83c-1.289 0-2.401-1.063-2.401-2.578 0-1.53 1.112-2.578 2.401-2.578 1.289 0 2.4 1.047 2.4 2.578 0 1.515-1.112 2.578-2.4 2.578zm-11.079-5.525v1.804h4.318c-.129 1.015-.467 1.756-.983 2.272-.628.628-1.611 1.321-3.335 1.321-2.658 0-4.736-2.143-4.736-4.801 0-2.658 2.078-4.801 4.736-4.801 1.434 0 2.481.564 3.254 1.289l1.273-1.273c-1.079-1.031-2.513-1.82-4.527-1.82-3.641 0-6.702 2.964-6.702 6.605 0 3.641 3.061 6.605 6.702 6.605 1.966 0 3.448-.644 4.608-1.853 1.192-1.192 1.563-2.868 1.563-4.221a5.84 5.84 0 00-.097-1.128h-6.074v.001zm45.308 1.401c-.354-.951-1.434-2.706-3.641-2.706-2.191 0-4.011 1.724-4.011 4.253 0 2.384 1.804 4.253 4.221 4.253 1.949 0 3.077-1.192 3.544-1.885l-1.45-.967c-.483.709-1.144 1.176-2.094 1.176-.951 0-1.627-.435-2.062-1.289l5.687-2.352-.194-.483zm-5.8 1.418c-.048-1.643 1.273-2.481 2.223-2.481.741 0 1.369.37 1.579.902l-3.802 1.579zM82.629 30h1.869V17.499h-1.869V30zm-3.062-7.298h-.064c-.419-.499-1.224-.95-2.239-.95-2.127 0-4.076 1.869-4.076 4.269 0 2.384 1.949 4.237 4.076 4.237 1.015 0 1.82-.451 2.239-.967h.064v.612c0 1.627-.87 2.497-2.272 2.497-1.144 0-1.853-.822-2.143-1.514l-1.627.677c.467 1.128 1.708 2.513 3.77 2.513 2.191 0 4.044-1.289 4.044-4.43V22.01h-1.772v.692zm-2.142 5.88c-1.289 0-2.368-1.079-2.368-2.562 0-1.498 1.079-2.594 2.368-2.594 1.273 0 2.272 1.095 2.272 2.594-.001 1.483-.999 2.562-2.272 2.562zm24.381-11.083h-4.471V30h1.866v-4.736h2.606c2.068 0 4.101-1.497 4.101-3.882s-2.034-3.883-4.102-3.883zm.048 6.025H99.2v-4.285h2.654c1.395 0 2.187 1.155 2.187 2.143 0 .968-.792 2.142-2.187 2.142zm11.532-1.795c-1.351 0-2.75.595-3.329 1.914l1.657.692c.354-.692 1.013-.917 1.705-.917.965 0 1.946.579 1.962 1.608v.129c-.338-.193-1.062-.483-1.946-.483-1.785 0-3.603.981-3.603 2.815 0 1.673 1.464 2.75 3.104 2.75 1.255 0 1.946-.563 2.38-1.222h.064v.965h1.801v-4.793c0-2.22-1.656-3.458-3.795-3.458zm-.225 6.851c-.611 0-1.464-.306-1.464-1.062 0-.965 1.062-1.335 1.978-1.335.82 0 1.206.177 1.705.418a2.262 2.262 0 01-2.219 1.979zm10.582-6.578l-2.139 5.42h-.064l-2.219-5.42h-2.01l3.329 7.575-1.898 4.214h1.946l5.131-11.789h-2.076zM106.936 30h1.866V17.499h-1.866V30zM41.278 13V7h1.835c.922 0 1.659.278 2.213.834.553.556.829 1.277.829 2.166 0 .888-.276 1.61-.829 2.166-.554.556-1.291.834-2.213.834h-1.835zm.771-.737h1.064c.692 0 1.241-.198 1.646-.595.405-.396.607-.953.607-1.667 0-.709-.202-1.264-.607-1.664-.405-.399-.954-.599-1.646-.599h-1.064v4.525zm5.188.737V7h.771v6zm3.837.134c-.436 0-.861-.142-1.277-.427a1.972 1.972 0 01-.817-1.199l.704-.285c.084.33.255.608.515.833.261.226.552.339.876.339.335 0 .622-.088.859-.264a.846.846 0 00.355-.717c0-.335-.118-.593-.355-.775-.237-.182-.613-.351-1.127-.507-.531-.167-.934-.384-1.207-.649s-.411-.604-.411-1.018c0-.43.171-.804.512-1.122.341-.318.785-.478 1.332-.478.509 0 .922.128 1.24.381.318.254.525.532.62.834l-.703.293c-.051-.189-.175-.366-.373-.528-.198-.162-.454-.243-.768-.243-.296 0-.549.082-.758.247a.753.753 0 00-.314.616c0 .224.097.412.289.566.193.153.477.292.851.415.296.095.543.187.742.277.198.089.399.208.603.356.204.148.358.333.461.553.103.221.155.476.155.767 0 .29-.059.55-.18.779a1.46 1.46 0 01-.479.545 2.397 2.397 0 01-1.345.411zm3.88-.134h-.771V7h2.045c.508 0 .948.169 1.319.507.372.338.558.764.558 1.278s-.186.939-.558 1.277a1.895 1.895 0 01-1.319.507h-1.274V13zm0-3.168h1.291c.324 0 .584-.108.779-.326.195-.218.293-.458.293-.721 0-.263-.098-.503-.293-.721-.195-.218-.455-.327-.779-.327h-1.291v2.095zm9.029 2.393c-.59.607-1.323.909-2.2.909-.877 0-1.61-.303-2.199-.909-.59-.606-.884-1.348-.884-2.225s.294-1.619.884-2.225c.589-.607 1.322-.91 2.199-.91.872 0 1.604.305 2.196.914.592.609.888 1.349.888 2.221 0 .877-.295 1.619-.884 2.225zm-3.83-.503a2.2 2.2 0 001.63.674c.643 0 1.187-.225 1.63-.674.444-.45.667-1.024.667-1.722s-.223-1.272-.667-1.722a2.199 2.199 0 00-1.63-.674c-.643 0-1.186.225-1.63.674-.443.45-.666 1.024-.666 1.722s.223 1.272.666 1.722zM65.949 13V7h.938l2.916 4.667h.033l-.033-1.156V7h.771v6h-.805l-3.051-4.894h-.033l.033 1.156V13zm6 0V7h.771v6zm2.145 0V7h2.17c.47 0 .876.155 1.22.465.344.311.516.7.516 1.169a1.3 1.3 0 01-.223.754 1.395 1.395 0 01-.591.495v.033c.296.101.539.274.729.519.189.246.285.531.285.855 0 .492-.181.899-.541 1.223-.36.325-.786.487-1.278.487h-2.287zm.77-3.428h1.399c.291 0 .524-.096.7-.289a.917.917 0 00.264-.632.916.916 0 00-.256-.628.861.861 0 00-.674-.285h-1.434v1.834h.001zm0 2.691h1.551a.919.919 0 00.721-.311.994.994 0 00.276-.679.968.968 0 00-.285-.674c-.189-.204-.438-.306-.746-.306h-1.517v1.97zm4.375.737V7h.771v5.263h2.598V13zm7.844-5.263h-2.732v1.902h2.464v.721h-2.464v1.902h2.732V13H83.58V7h3.503zm4.659 5.397c-.436 0-.861-.142-1.277-.427a1.977 1.977 0 01-.817-1.199l.704-.285c.084.33.255.608.515.833.261.226.552.339.876.339.335 0 .622-.088.859-.264a.846.846 0 00.355-.717c0-.335-.118-.593-.355-.775-.237-.182-.613-.351-1.127-.507-.531-.167-.934-.384-1.207-.649s-.411-.604-.411-1.018c0-.43.171-.804.512-1.122.341-.318.785-.478 1.332-.478.509 0 .922.128 1.24.381.318.254.525.532.62.834l-.703.293c-.051-.189-.175-.366-.373-.528-.198-.162-.454-.243-.768-.243-.296 0-.549.082-.758.247a.753.753 0 00-.314.616c0 .224.097.412.289.566.193.153.477.292.851.415.296.095.543.187.742.277.198.089.399.208.603.356.204.148.357.333.461.553.104.221.155.476.155.767 0 .29-.06.55-.18.779a1.46 1.46 0 01-.479.545 2.397 2.397 0 01-1.345.411zm5.196 0c-.66 0-1.194-.218-1.605-.653-.41-.436-.615-1.006-.615-1.709V7h.771v3.805c0 .475.124.858.373 1.152.248.293.607.439 1.077.439.469 0 .828-.146 1.076-.439.249-.294.373-.678.373-1.152V7h.771v3.771c0 .709-.2 1.281-.6 1.713-.4.434-.941.65-1.621.65zm3.46-.134V7h2.045c.508 0 .948.169 1.319.507.372.338.558.764.558 1.278 0 .419-.137.789-.411 1.11a1.778 1.778 0 01-1.022.607l-.017.025 1.685 2.439V13h-.913l-1.617-2.43h-.855V13h-.772zm.771-3.151h1.24c.308 0 .571-.101.792-.302a.985.985 0 00.331-.762c0-.263-.098-.503-.293-.721-.195-.218-.455-.327-.779-.327h-1.291v2.112zM13.516 31.602c-1.942 1.048-3.516.106-3.516-2.1V10.498c0-2.208 1.583-3.143 3.516-2.1l17.968 9.704c1.942 1.048 1.933 2.753 0 3.796l-17.968 9.704z" fill="#FFF" fill-rule="evenodd"/></svg>